{
    "asset" : {
        "generator" : "Khronos glTF Blender I/O v1.8.19",
        "version" : "2.0"
    },
    "scene" : 0,
    "scenes" : [
        {
            "name" : "Scene",
            "nodes" : [
                0,
                1,
                2
            ]
        }
    ],
    "nodes" : [
        {
            "mesh" : 0,
            "name" : "Brows",
            "scale" : [
                0.754548966884613,
                0.754548966884613,
                0.754548966884613
            ],
            "translation" : [
                7.006106853485107,
                9.443680763244629,
                0.8603395223617554
            ]
        },
        {
            "name" : "Empty",
            "rotation" : [
                0,
                0.7071068286895752,
                -0.7071068286895752,
                -3.090862321641907e-08
            ],
            "translation" : [
                2.2705798149108887,
                2.5,
                0
            ]
        },
        {
            "name" : "Empty.001",
            "rotation" : [
                0.5,
                -0.5,
                0.5,
                0.4999999701976776
            ],
            "translation" : [
                5.345345497131348,
                3.238147735595703,
                1.2455201148986816
            ]
        }
    ],
    "meshes" : [
        {
            "name" : "Cube",
            "primitives" : [
                {
                    "attributes" : {
                        "POSITION" : 0,
                        "NORMAL" : 1,
                        "TEXCOORD_0" : 2
                    },
                    "indices" : 3
                }
            ]
        }
    ],
    "accessors" : [
        {
            "bufferView" : 0,
            "componentType" : 5126,
            "count" : 14701,
            "max" : [
                2.0545167922973633,
                2.768221616744995,
                1.2134370803833008
            ],
            "min" : [
                -2.0415072441101074,
                -10.374333381652832,
                -0.8871197700500488
            ],
            "type" : "VEC3"
        },
        {
            "bufferView" : 1,
            "componentType" : 5126,
            "count" : 14701,
            "type" : "VEC3"
        },
        {
            "bufferView" : 2,
            "componentType" : 5126,
            "count" : 14701,
            "type" : "VEC2"
        },
        {
            "bufferView" : 3,
            "componentType" : 5123,
            "count" : 70695,
            "type" : "SCALAR"
        }
    ],
    "bufferViews" : [
        {
            "buffer" : 0,
            "byteLength" : 176412,
            "byteOffset" : 0
        },
        {
            "buffer" : 0,
            "byteLength" : 176412,
            "byteOffset" : 176412
        },
        {
            "buffer" : 0,
            "byteLength" : 117608,
            "byteOffset" : 352824
        },
        {
            "buffer" : 0,
            "byteLength" : 141390,
            "byteOffset" : 470432
        }
    ],
    "buffers" : [
        {
            "byteLength" : 611824,
            "uri" : "data:application/octet-stream;base64,"
        }
    ]
}
